<?xml version="1.0" encoding="iso-8859-1"?>
<!-- Generator: Adobe Illustrator 19.0.0, SVG Export Plug-In . SVG Version: 6.00 Build 0)  -->
<svg version="1.1" id="Layer_1" xmlns="http://www.w3.org/2000/svg" xmlns:xlink="http://www.w3.org/1999/xlink" x="0px" y="0px"
	 viewBox="0 0 505.058 505.058" style="enable-background:new 0 0 505.058 505.058;" xml:space="preserve">
<g>
	<path style="fill:#FFE100;" d="M182.237,291.874c0,16.488,6.942,30.373,14.753,45.125c8.678,15.62,20.827,27.77,36.447,37.315
		s32.108,13.885,51.2,13.885c18.224,0,35.58-4.339,51.2-13.885c15.62-9.546,26.902-23.431,36.447-39.051h121.492
		c-15.62,44.258-42.522,82.441-81.573,110.21s-82.441,42.522-130.169,42.522c-35.58,0-70.292-7.81-101.532-23.431
		c-71.159,34.712-122.359,36.447-153.6,5.207c-13.017-10.414-18.224-27.77-18.224-51.2s4.339-50.332,13.885-78.969
		c9.546-29.505,24.298-60.746,45.993-96.325c16.488-27.77,28.637-49.464,75.498-94.59c17.356-17.356,25.166-26.034,29.505-30.373
		c-41.654,19.959-95.458,57.275-138.847,95.458c26.034-64.217,62.481-97.193,106.739-124.963
		c47.729-28.637,86.78-47.729,138.847-47.729c5.207,0,10.414,0,16.488,0.868c38.183-17.356,72.895-26.034,104.136-28.637
		c31.241-1.736,52.936,3.471,65.953,15.62c26.034,26.034,27.77,67.688,6.942,124.095c19.959,34.712,20.827,73.763,20.827,113.681
		c0,9.546,0.868,18.224,0,26.034H381.831H182.237V291.874z M147.525,439.399c-45.125-27.77-60.746-50.332-78.969-99.797
		c-30.373,59.01-39.051,85.912-16.488,108.475C72.027,468.037,95.458,462.83,147.525,439.399z M373.153,231.128
		c-1.736-24.298-10.414-45.993-28.637-62.481c-18.224-17.356-39.919-24.298-64.217-24.298c-25.166,0-45.993,6.942-64.217,24.298
		s-31.241,38.183-32.976,62.481H373.153z M362.739,56.701c41.654,20.827,48.597,24.298,79.837,61.614
		c10.414-28.637,12.149-36.447,7.81-45.125c-4.339-10.414-13.017-18.224-22.563-23.431C412.203,41.081,401.79,41.081,362.739,56.701
		z"/>
	<path style="fill:#FFE100;" d="M182.237,291.874c0,16.488,0.868,30.373,8.678,45.125c8.678,15.62,27.77,27.77,43.39,37.315
		s57.275,13.885,75.498,13.885c18.224,0,9.546-4.339,25.166-13.885c15.62-9.546,26.902-23.431,36.447-39.051h95.458
		c-15.62,44.258-16.488,82.441-55.539,110.21s-56.407,42.522-104.136,42.522c-35.58,0-83.308-7.81-115.417-23.431
		c-71.159,34.712-108.475,36.447-139.715,5.207c-12.149-10.414-17.356-27.77-17.356-51.2s4.339-50.332,13.885-78.969
		c9.546-29.505,24.298-60.746,45.993-96.325c16.488-27.77,28.637-49.464,75.498-94.59c17.356-17.356,25.166-26.034,29.505-30.373
		c-41.654,19.959-95.458,39.919-138.847,78.102c26.034-64.217,62.481-79.837,106.739-107.607
		c47.729-28.637,86.78-47.729,138.847-47.729c5.207,0,10.414,0,16.488,0.868c38.183-17.356,46.861-26.034,78.102-28.637
		c31.241-1.736,26.902,3.471,39.919,15.62c26.034,26.034,27.77,67.688,6.942,124.095c19.959,34.712,20.827,73.763,20.827,113.681
		c0,9.546,0.868,18.224,0,26.034h-86.78H182.237V291.874z M164.881,439.399c-45.125-27.77-68.556-50.332-86.78-99.797
		c-7.81,15.62-60.746,65.085-17.356,108.475C72.895,460.227,96.325,470.64,164.881,439.399z M373.153,231.128
		c-1.736-24.298-10.414-45.993-28.637-62.481c-18.224-17.356-13.885-24.298-38.183-24.298c-25.166,0-70.292,6.942-88.515,24.298
		s-32.976,38.183-34.712,62.481H373.153z M362.739,56.701c41.654,20.827,48.597,24.298,79.837,61.614
		c10.414-28.637,12.149-36.447,8.678-45.125c-4.339-10.414-15.62-18.224-26.034-23.431C409.6,41.081,401.79,41.081,362.739,56.701z"
		/>
</g>
<g>
	<path style="fill:#FFA800;" d="M442.576,416.837c21.695-23.431,38.183-51.2,49.464-80.705h-26.034
		c-9.546,27.77-14.753,54.671-27.77,77.234"/>
	<path style="fill:#FFA800;" d="M321.953,42.816c34.712-15.62,45.125-24.298,70.292-27.769
		c-28.637,2.603-60.746,12.149-94.59,26.902c2.603,0,5.207,0,8.678,0C311.539,41.949,316.746,41.949,321.953,42.816z"/>
	<path style="fill:#FFA800;" d="M411.336,14.179h0.868H411.336z"/>
	<path style="fill:#FFA800;" d="M494.644,266.708c0-39.919-0.868-78.969-20.827-113.681c20.827-56.407,18.224-97.193-6.942-124.095
		c-11.281-9.546-28.637-14.753-52.068-14.753c14.753,0.868,14.753,6.075,25.166,15.62c26.034,26.034,27.77,67.688,6.942,124.095
		c19.959,34.712,20.827,73.763,20.827,113.681c0,9.546,0.868,18.224,0,26.034h26.034
		C494.644,285.799,494.644,276.254,494.644,266.708z"/>
</g>
<g>
	<path style="fill:#FFFFFF;" d="M167.485,89.677c43.39-26.034,79.837-44.258,124.963-46.861c-4.339,0-7.81-0.868-12.149-0.868
		c-52.068,0-91.119,19.092-138.847,47.729C97.193,117.447,59.878,151.291,34.712,214.64c9.546-7.81,19.092-16.488,28.637-24.298
		C88.515,132.199,124.095,116.579,167.485,89.677z"/>
	<path style="fill:#FFFFFF;" d="M50.332,470.64c-10.414-10.414-15.62-26.902-15.62-51.2c0-23.431,4.339-49.464,13.017-78.97
		c9.546-29.505,24.298-60.746,45.993-96.325c16.488-27.77,28.637-49.464,75.498-94.59c17.356-17.356,25.166-26.034,29.505-30.373
		c-14.753,6.942-31.241,13.885-47.729,21.695c-2.603,2.603-5.207,5.207-7.81,7.81c-46.861,45.993-59.01,67.688-75.498,94.59
		c-21.695,34.712-36.447,66.82-45.993,96.325C13.017,369.976,8.678,396.01,8.678,419.44c0,23.431,5.207,40.786,16.488,51.2
		c17.356,17.356,39.919,24.298,68.556,21.695C77.234,490.599,63.349,482.789,50.332,470.64z"/>
</g>
<path d="M82.441,500.145c-26.034,0-47.729-7.81-64.217-24.298C6.075,463.698,0,444.606,0,418.572
	c0-24.298,4.339-52.068,13.885-81.573c9.546-30.373,25.166-62.481,46.861-98.061l2.603-4.339
	c13.885-22.563,26.034-42.522,59.01-76.366c-27.769,18.224-56.407,39.919-82.441,62.481l-27.769,24.298l13.885-33.844
	c28.637-71.159,69.424-104.136,110.21-129.302c53.803-32.976,91.986-49.464,144.054-49.464c5.207,0,9.546,0,14.753,0.868
	c38.183-16.488,72.895-26.034,105.003-27.769c33.844-2.603,58.142,3.471,72.895,17.356c27.77,28.637,31.241,72.027,10.414,129.302
	c18.224,34.712,19.959,73.763,19.959,113.681c0,3.471,0,6.075,0,9.546c0,6.075,0,12.149,0,17.356l-0.868,7.81H191.783
	c1.736,11.281,6.942,21.695,13.017,32.976c7.81,13.885,19.092,25.166,32.976,33.844c13.885,8.678,29.505,12.149,45.993,12.149
	c17.356,0,32.976-4.339,46.861-12.149c12.149-7.81,24.298-19.959,32.976-35.58l2.603-4.339h138.847l-4.339,11.281
	c-13.017,36.447-32.976,68.556-59.878,93.722c-3.471,3.471-8.678,3.471-12.149,0c-3.471-3.471-3.471-8.678,0-12.149
	c21.695-20.827,39.051-46.861,51.2-75.498H375.756c-10.414,16.488-22.563,29.505-36.447,38.183
	c-16.488,9.546-35.58,14.753-55.539,14.753c-19.959,0-39.051-5.207-55.539-14.753c-16.488-9.546-29.505-23.431-39.051-39.919
	c-7.81-17.356-15.62-32.976-15.62-51.2v-8.678h312.407c0-2.603,0-5.207,0-7.81c0-3.471,0-6.075,0-9.546
	c0-40.786-1.736-77.234-19.959-109.342l-1.736-3.471l1.736-3.471c19.959-52.068,18.224-91.119-5.207-114.549
	c-10.414-10.414-31.241-14.753-59.01-13.017c-30.373,1.736-64.217,11.281-100.664,27.769l-2.603,0.868h-2.603
	c-5.207-0.868-10.414-0.868-15.62-0.868c-47.729,0-84.176,16.488-134.508,46.861c-30.373,19.092-60.746,42.522-85.912,85.044
	c36.447-28.637,76.366-54.671,110.21-71.159l59.878-28.637l-50.332,43.39c-3.471,2.603-8.678,8.678-19.092,19.092l-10.414,10.414
	c-43.39,42.522-56.407,64.217-72.027,88.515l-2.603,4.339c-20.827,33.844-35.58,65.953-45.125,93.722
	c-8.678,28.637-13.017,54.671-13.017,77.234c0,20.827,4.339,36.447,13.885,44.258c28.637,28.637,76.366,26.034,144.054-6.942
	l3.471-1.736l3.471,2.603c30.373,14.753,63.349,22.563,98.061,22.563c32.108,0,61.614-6.075,89.383-19.092
	c4.339-1.736,9.546,0,11.281,4.339c1.736,4.339,0,9.546-4.339,11.281c-29.505,13.885-62.481,20.827-96.325,20.827
	c-35.58,0-70.292-7.81-101.532-22.563C141.451,491.467,109.342,500.145,82.441,500.145z M80.705,468.905
	c-13.885,0-24.298-4.339-34.712-14.753c-28.637-27.77-13.017-63.349,14.753-118.888l8.678-17.356l6.942,18.224
	c17.356,47.729,31.241,68.556,75.498,95.458l13.885,8.678l-14.753,6.942C121.492,461.094,98.929,468.905,80.705,468.905z
	 M67.688,360.43c-23.431,47.729-24.298,65.953-9.546,81.573c13.885,13.885,30.373,13.017,71.159-4.339
	C96.325,415.101,81.573,394.274,67.688,360.43z M382.698,239.806H172.692l0.868-9.546c1.736-24.298,13.017-47.729,35.58-68.556
	c19.092-17.356,41.654-26.034,70.292-26.034s52.068,8.678,70.292,26.034c19.092,18.224,29.505,41.654,31.241,68.556L382.698,239.806
	z M191.783,222.45h171.824c-2.603-19.092-11.281-34.712-25.166-47.729c-15.62-14.753-33.844-21.695-59.01-21.695
	c-24.298,0-43.39,6.942-59.01,21.695S195.254,205.962,191.783,222.45z M445.18,135.671l-9.546-11.281
	c-30.373-35.58-35.58-39.051-77.234-59.01l-17.356-8.678l17.356-7.81c38.183-15.62,52.936-17.356,72.027-7.81
	c12.149,6.075,21.695,16.488,26.902,27.769c5.207,12.149,2.603,22.563-7.81,52.068L445.18,135.671z M384.434,57.569
	c24.298,12.149,34.712,19.959,55.539,43.39c5.207-16.488,5.207-19.959,3.471-25.166c-3.471-7.81-10.414-14.753-19.092-19.092
	C413.939,52.362,406.997,49.759,384.434,57.569z"/>
<circle cx="407.864" cy="448.077" r="8.678"/>
<g>
</g>
<g>
</g>
<g>
</g>
<g>
</g>
<g>
</g>
<g>
</g>
<g>
</g>
<g>
</g>
<g>
</g>
<g>
</g>
<g>
</g>
<g>
</g>
<g>
</g>
<g>
</g>
<g>
</g>
</svg>
