<?xml version="1.0" encoding="iso-8859-1"?>
<!-- Generator: Adobe Illustrator 19.0.0, SVG Export Plug-In . SVG Version: 6.00 Build 0)  -->
<svg version="1.1" id="Layer_1" xmlns="http://www.w3.org/2000/svg" xmlns:xlink="http://www.w3.org/1999/xlink" x="0px" y="0px"
	 viewBox="0 0 512 512" style="enable-background:new 0 0 512 512;" xml:space="preserve">
<path style="fill:#2BA5F7;" d="M443.796,221.019c0,1.562-0.013,3.124-0.053,4.672c-0.04,2.21-0.119,4.394-0.238,6.578
	c-0.397,8.034-1.231,15.949-2.475,23.732c-7.015,44.155-27.107,83.969-56.2,115.312c-5.096,5.493-10.483,10.748-16.121,15.711
	c-7.875,6.922-16.241,13.302-25.043,19.06c-8.484,5.546-17.366,10.536-26.604,14.891c-13.104,6.208-26.922,11.132-41.283,14.679
	c-16.982,4.183-34.731,6.393-52.997,6.393c-18.279,0-36.042-2.224-53.024-6.393c-34.996-8.617-66.696-25.572-92.904-48.629
	c-5.652-4.964-11.039-10.205-16.135-15.711C26.504,334.439,4.718,285.862,2.044,232.27c-0.199-3.719-0.291-7.478-0.291-11.251
	s0.093-7.531,0.291-11.251c2.674-53.593,24.46-102.156,58.675-139.031c5.096-5.506,10.483-10.748,16.135-15.711
	c26.194-23.057,57.894-39.999,92.877-48.616c16.995-4.183,34.758-6.406,53.05-6.406c18.279,0,36.042,2.224,53.037,6.406
	c34.983,8.617,66.696,25.559,92.89,48.616c5.639,4.964,11.026,10.205,16.121,15.711c34.215,36.876,56.002,85.439,58.675,139.031
	C443.704,213.488,443.796,217.247,443.796,221.019z"/>
<g>
	<path style="fill:#2197D8;" d="M340.026,217.843c-28.802,11.754-51.303,34.03-63.348,62.712
		c-12.045,28.696-12.19,60.343-0.437,89.145c8.564,20.966,22.7,38.596,40.82,51.276c9.239-4.355,18.12-9.345,26.604-14.891
		c-19.483-9.755-34.599-26.035-42.911-46.392c-9.093-22.25-8.974-46.723,0.331-68.88c9.318-22.17,26.697-39.377,48.947-48.47
		c11.105-4.54,22.607-6.684,33.924-6.684c17.75,0,35.036,5.281,49.688,14.917c2.541,1.681,5.016,3.494,7.386,5.427
		c1.244-7.783,2.078-15.698,2.475-23.732c0.119-2.184,0.199-4.368,0.238-6.578C413.38,207.611,375.181,203.481,340.026,217.843z"/>
	<path style="fill:#2197D8;" d="M283.66,381.154c-122.068,0-221.023-98.955-221.023-221.023c0-45.468,13.736-87.726,37.277-122.861
		C40.722,76.926,1.751,144.417,1.751,221.017c0,122.068,98.955,221.023,221.023,221.023c76.6,0,144.09-38.971,183.746-98.162
		C371.386,367.418,329.129,381.154,283.66,381.154z"/>
</g>
<path style="fill:#1885B5;" d="M443.503,232.266c0.199-3.719,0.291-7.478,0.291-11.251c0-3.772-0.093-7.531-0.291-11.251h-83.996
	c-0.291-10.351-0.966-20.582-2.038-30.641c-2.793-26.538-8.233-51.859-16.108-74.995c4.302-2.555,8.524-5.268,12.667-8.114
	c10.867-7.465,21.178-15.91,30.8-25.281c-5.096-5.506-10.483-10.748-16.121-15.711c-9.49,9.199-19.708,17.392-30.522,24.54
	c-1.668,1.112-3.362,2.184-5.056,3.243c-1.602-3.706-3.269-7.333-5.016-10.88c-2.131-4.381-4.381-8.63-6.724-12.76
	c-13.09-23.044-28.563-40.833-45.572-52.759C258.82,2.224,241.058,0,222.779,0c-18.292,0-36.055,2.224-53.05,6.406
	c-17.008,11.939-32.481,29.728-45.572,52.759c-4.249,7.478-8.167,15.38-11.74,23.64c-12.693-7.875-24.619-17.167-35.565-27.782
	C71.2,59.986,65.813,65.227,60.717,70.733c13.302,12.958,27.888,24.116,43.48,33.395C93.343,136.04,87.083,172.095,86.05,209.765
	H2.041c-0.199,3.719-0.291,7.478-0.291,11.251c0,3.772,0.093,7.531,0.291,11.251H86.05c1.032,37.67,7.293,73.738,18.147,105.65
	c-15.579,9.278-30.178,20.436-43.48,33.395c5.096,5.506,10.483,10.748,16.135,15.711c10.946-10.629,22.872-19.92,35.565-27.782
	c3.587,8.246,7.492,16.148,11.74,23.626c13.104,23.057,28.577,40.846,45.598,52.785c16.982,4.169,34.745,6.393,53.024,6.393
	c18.266,0,36.015-2.21,52.997-6.393c17.022-11.926,32.508-29.728,45.611-52.785c4.249-7.478,8.167-15.38,11.74-23.626
	c12.693,7.875,24.619,17.167,35.578,27.782c5.639-4.964,11.026-10.218,16.121-15.711c-13.302-12.958-27.888-24.116-43.48-33.395
	c10.867-31.912,17.114-67.98,18.16-105.65L443.503,232.266L443.503,232.266z M211.528,429.747
	c-25.215-4.646-48.947-24.831-67.808-58c-4.183-7.346-8.008-15.155-11.476-23.348c24.619-11.793,51.475-18.689,79.284-20.158
	L211.528,429.747L211.528,429.747z M211.528,305.699c-30.536,1.456-60.052,8.815-87.186,21.522
	c-9.371-28.722-14.798-61.071-15.791-94.955h102.976V305.699z M211.528,209.765H108.552c0.993-33.871,6.419-66.233,15.791-94.955
	c27.121,12.707,56.637,20.066,87.186,21.522V209.765z M211.528,113.79c-27.809-1.456-54.665-8.352-79.297-20.158
	c3.481-8.193,7.306-15.989,11.489-23.348c18.861-33.169,42.594-53.354,67.808-58V113.79z M234.029,12.283
	c21.853,4.024,42.607,19.735,59.999,45.453c2.687,3.944,5.281,8.127,7.796,12.548c4.183,7.359,8.008,15.155,11.489,23.348
	c-20.225,9.702-41.945,16.082-64.473,18.848c-4.897,0.609-9.848,1.046-14.811,1.31L234.029,12.283L234.029,12.283z M301.824,371.747
	c-18.848,33.169-42.594,53.354-67.795,58V328.24c27.809,1.469,54.652,8.365,79.284,20.159
	C309.832,356.592,306.007,364.401,301.824,371.747z M321.215,327.221c-27.134-12.707-56.65-20.066-87.186-21.522v-73.433h102.963
	C336.013,266.15,330.586,298.499,321.215,327.221z M234.029,209.765v-73.433c8.153-0.384,16.227-1.191,24.195-2.409
	c21.919-3.349,43.097-9.795,62.99-19.113c7.028,21.535,11.833,45.108,14.216,69.833c0.794,8.259,1.31,16.638,1.562,25.122H234.029z"
	/>
<ellipse transform="matrix(-0.7071 -0.7071 0.7071 -0.7071 444.0223 425.4836)" style="fill:#6EC6ED;" cx="310.132" cy="120.782" rx="75.656" ry="49.33"/>
<path style="fill:#2197D8;" d="M357.468,179.123c-6.261,3.812-13.805,5.612-22.038,5.519c-2.383-24.725-7.187-48.298-14.216-69.833
	c-19.894,9.318-41.071,15.764-62.99,19.113c-4.236-7.108-7.386-14.361-9.384-21.442c22.528-2.766,44.248-9.146,64.473-18.848
	c-3.481-8.193-7.306-15.989-11.489-23.348c-2.515-4.421-5.109-8.603-7.796-12.548c11.052,1.813,22.845,6.631,34.083,14.189
	c1.747,3.547,3.415,7.174,5.016,10.88c1.694-1.059,3.388-2.131,5.056-3.243c2.33,1.985,4.619,4.103,6.843,6.327
	c3.269,3.269,6.274,6.658,9,10.126c-4.143,2.846-8.365,5.559-12.667,8.114C349.236,127.264,354.676,152.585,357.468,179.123z"/>
<circle style="fill:#A0D5F2;" cx="393.772" cy="315.957" r="103.236"/>
<path style="fill:#BEE9FC;" d="M393.817,386.127c-28.643-0.003-54.147-17.134-64.977-43.647
	c-7.087-17.346-6.993-36.412,0.262-53.688c7.255-17.274,20.803-30.692,38.148-37.777c8.505-3.474,17.417-5.236,26.489-5.236
	c28.639,0,54.143,17.133,64.974,43.647c14.626,35.806-2.605,76.836-38.411,91.464c-8.505,3.474-17.415,5.236-26.481,5.236
	C393.821,386.127,393.82,386.127,393.817,386.127z"/>
<path style="fill:#FFFFFF;" d="M449.589,295.833c-3.653,0-7.114-2.175-8.581-5.764c-9.894-24.218-37.646-35.872-61.861-25.98
	c-4.745,1.935-10.147-0.338-12.082-5.073c-1.935-4.737,0.338-10.145,5.073-12.081c16.313-6.666,34.248-6.576,50.494,0.247
	c16.247,6.823,28.866,19.566,35.531,35.88c1.935,4.737-0.338,10.145-5.073,12.081C451.941,295.611,450.755,295.833,449.589,295.833z
	"/>
<path style="fill:#F95428;" d="M473.458,511.021c-1.641,0.662-3.335,0.979-5.003,0.979c-5.215,0-10.165-3.11-12.257-8.233
	l-24.354-59.642h-0.013l-10.073-24.672l-1.191-2.925c-2.766-6.764,21.734-16.783,24.5-10.006l0.993,2.422l10.126,24.778
	l24.526,60.039C483.465,500.524,480.222,508.254,473.458,511.021z"/>
<path style="fill:#E54728;" d="M446.06,408.944c-4.222,2.621-8.709,4.911-13.461,6.856c-3.561,1.456-7.187,2.674-10.84,3.653
	l10.073,24.672h0.013c3.627-1.085,7.227-2.356,10.774-3.812c4.725-1.932,9.252-4.13,13.567-6.592L446.06,408.944z"/>
<path style="fill:#F95428;" d="M393.77,432.489c-15.289,0-30.57-3.051-45.09-9.149c-28.684-12.046-50.96-34.542-62.726-63.341
	c-11.766-28.8-11.609-60.46,0.437-89.143c12.046-28.684,34.541-50.96,63.341-62.726c59.451-24.288,127.579,4.324,151.868,63.778l0,0
	c24.285,59.454-4.326,127.581-63.779,151.868C423.601,429.586,408.681,432.489,393.77,432.489z M393.662,225.951
	c-11.317,0-22.812,2.148-33.92,6.684c-22.254,9.09-39.637,26.304-48.945,48.469c-9.308,22.165-9.428,46.628-0.336,68.883
	c9.091,22.255,26.303,39.637,48.468,48.946c22.164,9.309,46.628,9.428,68.883,0.338c45.94-18.766,68.048-71.41,49.28-117.352l0,0
	C462.864,247.085,429.155,225.951,393.662,225.951z"/>
<g>
</g>
<g>
</g>
<g>
</g>
<g>
</g>
<g>
</g>
<g>
</g>
<g>
</g>
<g>
</g>
<g>
</g>
<g>
</g>
<g>
</g>
<g>
</g>
<g>
</g>
<g>
</g>
<g>
</g>
</svg>
